<?xml version="1.0" encoding="UTF-8" standalone="no"?>
<!-- Created with Inkscape (http://www.inkscape.org/) -->

<svg
   xmlns:dc="http://purl.org/dc/elements/1.1/"
   xmlns:cc="http://creativecommons.org/ns#"
   xmlns:rdf="http://www.w3.org/1999/02/22-rdf-syntax-ns#"
   xmlns:svg="http://www.w3.org/2000/svg"
   xmlns="http://www.w3.org/2000/svg"
   xmlns:xlink="http://www.w3.org/1999/xlink"
   xmlns:sodipodi="http://sodipodi.sourceforge.net/DTD/sodipodi-0.dtd"
   xmlns:inkscape="http://www.inkscape.org/namespaces/inkscape"
   width="256"
   height="256"
   viewBox="0 0 255.99999 255.99999"
   id="svg2"
   version="1.1"
   inkscape:version="0.92.3 (2405546, 2018-03-11)"
   sodipodi:docname="logo_box_no_text.svg"
   inkscape:export-filename="/home/dan/openrw/logo_box_profile.png"
   inkscape:export-xdpi="70.309998"
   inkscape:export-ydpi="70.309998">
  <defs
     id="defs4">
    <linearGradient
       inkscape:collect="always"
       id="linearGradient4216">
      <stop
         style="stop-color:#8fc0d5;stop-opacity:1"
         offset="0"
         id="stop4218" />
      <stop
         style="stop-color:#f4c2cd;stop-opacity:1"
         offset="1"
         id="stop4220" />
    </linearGradient>
    <linearGradient
       inkscape:collect="always"
       id="linearGradient4208">
      <stop
         style="stop-color:#5e806e;stop-opacity:1"
         offset="0"
         id="stop4210" />
      <stop
         style="stop-color:#759e89;stop-opacity:1"
         offset="1"
         id="stop4212" />
    </linearGradient>
    <linearGradient
       inkscape:collect="always"
       id="linearGradient4200">
      <stop
         style="stop-color:#c6c6c6;stop-opacity:1"
         offset="0"
         id="stop4202" />
      <stop
         style="stop-color:#f2f2f2;stop-opacity:1"
         offset="1"
         id="stop4204" />
    </linearGradient>
    <linearGradient
       inkscape:collect="always"
       id="linearGradient4184">
      <stop
         style="stop-color:#de7443;stop-opacity:1"
         offset="0"
         id="stop4186" />
      <stop
         style="stop-color:#f9b96c;stop-opacity:1"
         offset="1"
         id="stop4188" />
    </linearGradient>
    <linearGradient
       id="linearGradient4159-3"
       inkscape:collect="always">
      <stop
         id="stop4180"
         offset="0"
         style="stop-color:#f26165;stop-opacity:1" />
      <stop
         id="stop4182"
         offset="1"
         style="stop-color:#913677;stop-opacity:1" />
    </linearGradient>
    <clipPath
       clipPathUnits="userSpaceOnUse"
       id="clipPath4270">
      <rect
         style="fill:#ffffff;fill-opacity:1;stroke:none"
         id="rect4272"
         width="189.99998"
         height="159.99998"
         x="34.999996"
         y="817.36218"
         ry="9.999979" />
    </clipPath>
    <linearGradient
       inkscape:collect="always"
       xlink:href="#linearGradient4159-3"
       id="linearGradient4165"
       x1="209.99997"
       y1="892.36224"
       x2="219.99997"
       y2="812.36224"
       gradientUnits="userSpaceOnUse"
       gradientTransform="translate(0.99998477,-1.0000296)" />
    <linearGradient
       inkscape:collect="always"
       xlink:href="#linearGradient4184"
       id="linearGradient4190"
       x1="149.99998"
       y1="872.36224"
       x2="149.99998"
       y2="812.36224"
       gradientUnits="userSpaceOnUse"
       gradientTransform="translate(0,-1.0000317)" />
    <linearGradient
       inkscape:collect="always"
       xlink:href="#linearGradient4200"
       id="linearGradient4206"
       x1="29.999996"
       y1="1002.3622"
       x2="74.999992"
       y2="927.36224"
       gradientUnits="userSpaceOnUse" />
    <linearGradient
       inkscape:collect="always"
       xlink:href="#linearGradient4208"
       id="linearGradient4214"
       x1="99.999985"
       y1="1032.3622"
       x2="99.999985"
       y2="942.36218"
       gradientUnits="userSpaceOnUse" />
    <linearGradient
       inkscape:collect="always"
       xlink:href="#linearGradient4216"
       id="linearGradient4222"
       x1="224.99997"
       y1="1027.3622"
       x2="214.99997"
       y2="927.36224"
       gradientUnits="userSpaceOnUse"
       gradientTransform="translate(1.0000027,0)" />
  </defs>
  <sodipodi:namedview
     id="base"
     pagecolor="#ffffff"
     bordercolor="#666666"
     borderopacity="1.0"
     inkscape:pageopacity="0.0"
     inkscape:pageshadow="2"
     inkscape:zoom="3.3780922"
     inkscape:cx="73.543619"
     inkscape:cy="93.613077"
     inkscape:document-units="px"
     inkscape:current-layer="text4387"
     showgrid="true"
     units="px"
     inkscape:object-nodes="true"
     inkscape:snap-smooth-nodes="true"
     inkscape:window-width="1920"
     inkscape:window-height="1016"
     inkscape:window-x="0"
     inkscape:window-y="27"
     inkscape:window-maximized="1">
    <inkscape:grid
       type="xygrid"
       id="grid3336"
       visible="true"
       dotted="true" />
  </sodipodi:namedview>
  <metadata
     id="metadata7">
    <rdf:RDF>
      <cc:Work
         rdf:about="">
        <dc:format>image/svg+xml</dc:format>
        <dc:type
           rdf:resource="http://purl.org/dc/dcmitype/StillImage" />
        <dc:title></dc:title>
      </cc:Work>
    </rdf:RDF>
  </metadata>
  <g
     inkscape:label="Layer 1"
     inkscape:groupmode="layer"
     id="layer1"
     transform="translate(0,-796.36223)">
    <rect
       style="fill:#000000;fill-opacity:1;stroke:none"
       id="rect4293"
       width="235.99997"
       height="235.99995"
       x="9.999999"
       y="806.36249"
       ry="15.063811" />
    <path
       style="fill:#722219;fill-opacity:1;stroke:none"
       d="m 34.999987,816.36224 50.000003,-1e-5 14.999998,89.99999 -9.999999,0 -69.999991,24.99999 -1.1e-5,-99.99997 c 0,-8.31 6.69,-15 15,-15 z"
       id="rect4297"
       inkscape:connector-curvature="0"
       sodipodi:nodetypes="scccccs" />
    <path
       style="fill:url(#linearGradient4165);fill-opacity:1;stroke:none"
       d="m 194.99998,816.36224 26,10e-6 c 8.31,0 15,6.69 15,15 l -1e-5,74.99998 -55.99999,14.99999 z"
       id="rect4297-7"
       inkscape:connector-curvature="0"
       sodipodi:nodetypes="cscccc" />
    <path
       style="fill:url(#linearGradient4190);fill-opacity:1;stroke:none"
       d="m 94.999989,816.36223 89.999991,0 -15,84.99999 -59.99999,5 z"
       id="rect4297-7-8"
       inkscape:connector-curvature="0"
       sodipodi:nodetypes="ccccc" />
    <path
       style="fill:url(#linearGradient4206);fill-opacity:1;stroke:none"
       d="m 19.999998,1017.3622 0,-75.99999 59.999992,-20 -14.999998,110.99999 -29.999995,0 c -8.31,0 -14.999999,-6.69 -14.999999,-15 z"
       id="rect4297-4"
       inkscape:connector-curvature="0"
       sodipodi:nodetypes="sccccs" />
    <path
       style="fill:url(#linearGradient4222);fill-opacity:1;stroke:none"
       d="m 235.99997,916.36222 0,100.99998 c 0,8.31 -6.69,15 -15,15 l -55.99999,0 15,-100.99999 z"
       id="rect4297-7-1"
       inkscape:connector-curvature="0"
       sodipodi:nodetypes="cscccc" />
    <path
       sodipodi:nodetypes="ccccc"
       inkscape:connector-curvature="0"
       id="path4207"
       d="m 89.999989,917.36222 79.999991,-5 -15,119.99998 -79.999989,0 z"
       style="fill:url(#linearGradient4214);fill-opacity:1;stroke:none" />
  </g>
  <g
     inkscape:groupmode="layer"
     id="layer3"
     inkscape:label="Logodrop"
     style="display:inline">
    <text
       id="text4154"
       y="127.69905"
       x="39.999996"
       style="font-style:normal;font-weight:normal;line-height:0%;font-family:sans-serif;letter-spacing:0px;word-spacing:-1.04999983px;display:inline;fill:none;fill-opacity:1;stroke:#000000;stroke-width:9.99999905;stroke-linecap:butt;stroke-linejoin:miter;stroke-miterlimit:4;stroke-dasharray:none;stroke-opacity:1"
       xml:space="preserve"><tspan
         style="font-style:normal;font-variant:normal;font-weight:900;font-stretch:normal;font-size:79.99999237px;line-height:69.99999881%;font-family:Pricedown;-inkscape-font-specification:'Pricedown Heavy';word-spacing:-1.04999983px;fill:none;stroke:#000000;stroke-width:9.99999905;stroke-miterlimit:4;stroke-dasharray:none;stroke-opacity:1"
         y="127.69905"
         x="39.999996"
         id="tspan4156"
         sodipodi:role="line">Open</tspan><tspan
         id="tspan4158"
         style="font-style:normal;font-variant:normal;font-weight:900;font-stretch:normal;font-size:79.99999237px;line-height:69.99999881%;font-family:Pricedown;-inkscape-font-specification:'Pricedown Heavy';word-spacing:-1.04999983px;fill:none;stroke:#000000;stroke-width:9.99999905;stroke-miterlimit:4;stroke-dasharray:none;stroke-opacity:1"
         y="183.69905"
         x="39.999996"
         sodipodi:role="line">    RW</tspan></text>
  </g>
  <g
     inkscape:groupmode="layer"
     id="layer2"
     inkscape:label="Logotext"
     style="display:inline">
    <g
       aria-label="Open
    RW"
       style="font-style:normal;font-weight:normal;line-height:0%;font-family:sans-serif;letter-spacing:0px;word-spacing:-1.04999983px;fill:#000000;fill-opacity:1;stroke:none;stroke-width:2.99999952;stroke-linecap:butt;stroke-linejoin:miter;stroke-miterlimit:4;stroke-dasharray:none;stroke-opacity:1"
       id="text4387">
      <path
         d="m 62.639994,89.033981 q 0,-0.16 -0.16,-0.16 h -3.76 q -0.16,0 -0.16,0.16 v 25.279999 q 0,0.16 0.16,0.16 h 3.76 q 0.16,0 0.16,-0.16 z M 50.239995,127.19398 q -8.319999,0 -8.319999,-6.32 V 82.553982 q 0,-6.48 8.319999,-6.48 h 20.719998 q 8.319999,0 8.319999,6.48 v 38.319998 q 0,6.32 -8.319999,6.32 z"
         style="font-style:normal;font-variant:normal;font-weight:900;font-stretch:normal;font-size:79.99999237px;line-height:69.99999881%;font-family:Pricedown;-inkscape-font-specification:'Pricedown Heavy';word-spacing:-1.04999983px;fill:#ffffff;stroke:none;stroke-width:2.99999952;stroke-miterlimit:4;stroke-dasharray:none;stroke-opacity:1"
         id="path45" />
      <path
         d="M 83.169992,143.11398 V 76.073982 h 29.039998 q 8.32,0 8.32,6.48 v 38.319998 q 0,3.2 -2,4.8 -2,1.52 -6.32,1.52 H 99.809991 v 15.92 z M 103.88999,89.033981 q 0,-0.16 -0.16,-0.16 h -3.919999 v 25.599999 h 3.919999 q 0.16,0 0.16,-0.16 z"
         style="font-style:normal;font-variant:normal;font-weight:900;font-stretch:normal;font-size:79.99999237px;line-height:69.99999881%;font-family:Pricedown;-inkscape-font-specification:'Pricedown Heavy';word-spacing:-1.04999983px;fill:#ffffff;stroke:none;stroke-width:2.99999952;stroke-miterlimit:4;stroke-dasharray:none;stroke-opacity:1"
         id="path47" />
      <path
         d="m 145.29624,89.033981 q 0,-0.16 -0.16,-0.16 h -3.76 q -0.16,0 -0.16,0.16 v 7.119999 h 4.08 z m -12.4,38.159999 q -8.32,0 -8.32,-6.32 V 82.553982 q 0,-6.48 8.32,-6.48 h 20.72 q 8.31999,0 8.31999,6.48 v 25.519998 h -20.71999 v 6.24 q 0,0.16 0.16,0.16 h 3.76 q 0.16,0 0.16,-0.16 v -3.04 h 16.63999 v 9.6 q 0,6.32 -8.31999,6.32 z"
         style="font-style:normal;font-variant:normal;font-weight:900;font-stretch:normal;font-size:79.99999237px;line-height:69.99999881%;font-family:Pricedown;-inkscape-font-specification:'Pricedown Heavy';word-spacing:-1.04999983px;fill:#ffffff;stroke:none;stroke-width:2.99999952;stroke-miterlimit:4;stroke-dasharray:none;stroke-opacity:1"
         id="path49" />
      <path
         d="m 165.98623,127.19398 z m 20.72,0 V 89.033981 q 0,-0.16 -0.16,-0.16 h -3.76 q -0.16,0 -0.16,0.16 v 38.159999 h -16.64 V 76.073982 h 16.64 v 3.28 q 4.24,-3.28 12.4,-3.28 8.32,0 8.32,6.48 v 44.639998 z"
         style="font-style:normal;font-variant:normal;font-weight:900;font-stretch:normal;font-size:79.99999237px;line-height:69.99999881%;font-family:Pricedown;-inkscape-font-specification:'Pricedown Heavy';word-spacing:-1.04999983px;fill:#ffffff;stroke:none;stroke-width:2.99999952;stroke-miterlimit:4;stroke-dasharray:none;stroke-opacity:1"
         id="path51" />
      <path
         d="m 129.84999,183.19397 v -20.32 q 0,-0.16 -0.16,-0.16 h -3.92 v 20.48 h -16.64 v -51.11999 h 29.04 q 8.24,0 8.24,6.48 v 14.87999 q 0,3.68 -4.08,4.16 4.16,0.56 4.16,4.24 v 21.36 z m 0,-38.16 q 0,-0.16 -0.16,-0.16 h -3.92 v 7.68 h 3.92 q 0.16,0 0.16,-0.16 z"
         style="font-style:normal;font-variant:normal;font-weight:900;font-stretch:normal;font-size:79.99999237px;line-height:69.99999881%;font-family:Pricedown;-inkscape-font-specification:'Pricedown Heavy';word-spacing:-1.04999983px;fill:#ffffff;stroke:none;stroke-width:2.99999952;stroke-miterlimit:4;stroke-dasharray:none;stroke-opacity:1"
         id="path53" />
      <path
         d="m 186.29623,183.19397 -4.16,-25.6 -4.24,25.6 h -20.88 l -8.32,-51.11999 h 17.12 l 4.24,28.71999 4.16,-28.71999 h 16.56 l 4.08,28.71999 4.24,-28.71999 h 16.08 l -8.32,51.11999 z"
         style="font-style:normal;font-variant:normal;font-weight:900;font-stretch:normal;font-size:79.99999237px;line-height:69.99999881%;font-family:Pricedown;-inkscape-font-specification:'Pricedown Heavy';word-spacing:-1.04999983px;fill:#ffffff;stroke:none;stroke-width:2.99999952;stroke-miterlimit:4;stroke-dasharray:none;stroke-opacity:1"
         id="path55" />
    </g>
  </g>
</svg>
